<?xml version="1.0" encoding="UTF-8"?><svg id="Layer_1" xmlns="http://www.w3.org/2000/svg" viewBox="0 0 574.57 558"><defs><style>.cls-1{font-family:Roboto-Regular, Roboto;font-size:72px;}.cls-1,.cls-2{fill:#fff;}.cls-3{fill:#59595b;}.cls-3,.cls-2{stroke-width:0px;}</style></defs><rect class="cls-3" width="574.57" height="558" rx="24.25" ry="24.25"/><path class="cls-2" d="m470.51,236.08c-22.69-80.45-92.63-132.73-176.73-133.99-62.56-.93-125.61,9.28-187.62-7.31-11.15-2.98-9.35,4.5-7.77,11.25,10.49,44.57,12.67,89.96,13.2,128.19,0,22.54-.68,37.8.14,52.98,1.78,33.2,9.56,65.05,28.85,92.61,67.18,96,177.47,111.26,271.34,38.14,55.45-43.2,77.97-113.11,58.58-181.88Zm-122.3-30.22c-40.99-27.59-96.58-17.7-126.23,22.46-29.45,39.88-22.21,96.54,16.27,127.34,39.18,31.37,94.99,26.93,127.72-10.19,2.46-2.79,4.69-5.77,6.99-8.7,7.16-9.08,17.27-11.3,25.26-5.53,8.07,5.83,9.51,16.28,2.59,25.73-26.48,36.17-62.27,54.64-107.07,53.73-62.79-1.28-112.81-46-122.79-108.65v-.08c-1.17-7.03-2.17-14.09-2.17-21.22,0-4.92.54-9.83,1.73-14.6,2.35-9.44,3.52-19.18,7.3-28.32,19.1-46.29,53.39-74.25,102.61-80.66,47.76-6.22,87.63,10.87,117.77,49.08,12.3,15.6,9.73,22.25-8.36,38.63-25.91,23.47-50.29,48.56-73.95,74.31-13.97,15.21-22.47,16.13-35.77,2.85-13.7-13.68-27.44-27.31-41.02-41.12-8.98-9.14-9.39-18.89-1.49-26.46,7.06-6.76,17.19-6.08,25.78,2.19,9.12,8.77,18.18,17.63,26.8,26.89,4.51,4.85,7.49,5.44,12.44.3,16-16.63,32.7-32.59,48.75-49.18,11.43-11.8,10.29-19.76-3.18-28.83Z"/><text class="cls-1" transform="translate(18.88 527.81)"><tspan x="0" y="0">Image goes here</tspan></text></svg>